# xmcd CD database file
#
# Track frame offsets:
#	150
#	24618
#	41156
#	53184
#	69624
#	85640
#	94090
#	119681
#	131714
#	167842
#	182010
#	194708
#	215543
#	230954
#
# Disc length: 3305 seconds
#
# Revision: 2
# Processed by: cddbd v1.5.1PL0 Copyright (c) Steve Scherf et al.
# Submitted via: CDex 1.51
#
DISCID=d60ce70e
DTITLE=中山美千繪 - アヴェ・マリア
DYEAR=1995
DGENRE=Classical
TTITLE0=Somewhere and I Have A Love from West Side Story
TTITLE1=アヴェ・マリア
TTITLE2=夢のあとに
TTITLE3=愛の小径
TTITLE4=ジュ・トゥ・ヴー
TTITLE5=わが母の教え給いし歌
TTITLE6=アヴェ・マリア
TTITLE7=アヴェ・マリア
TTITLE8=裏切られた花嫁
TTITLE9=愛しの森よ
TTITLE10=オンブラ・マイ・フ(なつかしい木かげ)
TTITLE11=別れの曲
TTITLE12=五月に
TTITLE13=アメイジング・グレイス
EXTD=YEAR: 1995
EXTT0=
EXTT1=
EXTT2=
EXTT3=
EXTT4=
EXTT5=
EXTT6=
EXTT7=
EXTT8=
EXTT9=
EXTT10=
EXTT11=
EXTT12=
EXTT13=
PLAYORDER=
